<svg xmlns="http://www.w3.org/2000/svg" width="1200" height="675" viewBox="0 0 1200 675" role="img" aria-labelledby="title description"><title id="title">Review the full meal photo and separate extras</title><desc id="description">A full plate is framed by camera corners. A separate topping container and dressing bottle have review markers: portions and extras need checking, not an exact calorie claim.</desc><rect width="1200" height="675" fill="#f2f6ef"/>
  <circle cx="1092" cy="82" r="180" fill="#dcead7"/><circle cx="43" cy="618" r="205" fill="#e2ebdc"/>
  <path d="M130 173v-63h66M645 110h66v63M130 511v63h66M645 574h66v-63" fill="none" stroke="#6d937c" stroke-width="7" stroke-linecap="round"/>
  <ellipse cx="422" cy="352" rx="236" ry="228" fill="#d9e3d6"/><circle cx="420" cy="337" r="221" fill="#fffdf6" stroke="#a7baaa" stroke-width="3"/><circle cx="420" cy="337" r="177" fill="#e9eddc" stroke="#d0ddcd" stroke-width="2"/>
  <path d="M272 343c-12-102 62-167 141-147 69 18 91 126 36 181-57 56-145 36-177-34" fill="#ecdfb8"/>
  <g fill="#faf3d4" transform="rotate(-17 349 281)"><ellipse cx="286" cy="220" rx="9" ry="4"/><ellipse cx="310" cy="220" rx="9" ry="4"/><ellipse cx="334" cy="220" rx="9" ry="4"/><ellipse cx="358" cy="220" rx="9" ry="4"/><ellipse cx="382" cy="220" rx="9" ry="4"/><ellipse cx="406" cy="220" rx="9" ry="4"/><ellipse cx="286" cy="245" rx="9" ry="4"/><ellipse cx="310" cy="245" rx="9" ry="4"/><ellipse cx="334" cy="245" rx="9" ry="4"/><ellipse cx="358" cy="245" rx="9" ry="4"/><ellipse cx="382" cy="245" rx="9" ry="4"/><ellipse cx="406" cy="245" rx="9" ry="4"/><ellipse cx="286" cy="270" rx="9" ry="4"/><ellipse cx="310" cy="270" rx="9" ry="4"/><ellipse cx="334" cy="270" rx="9" ry="4"/><ellipse cx="358" cy="270" rx="9" ry="4"/><ellipse cx="382" cy="270" rx="9" ry="4"/><ellipse cx="406" cy="270" rx="9" ry="4"/><ellipse cx="286" cy="295" rx="9" ry="4"/><ellipse cx="310" cy="295" rx="9" ry="4"/><ellipse cx="334" cy="295" rx="9" ry="4"/><ellipse cx="358" cy="295" rx="9" ry="4"/><ellipse cx="382" cy="295" rx="9" ry="4"/><ellipse cx="406" cy="295" rx="9" ry="4"/><ellipse cx="286" cy="320" rx="9" ry="4"/><ellipse cx="310" cy="320" rx="9" ry="4"/><ellipse cx="334" cy="320" rx="9" ry="4"/><ellipse cx="358" cy="320" rx="9" ry="4"/><ellipse cx="382" cy="320" rx="9" ry="4"/><ellipse cx="406" cy="320" rx="9" ry="4"/></g>
  <g stroke="#9d7846" stroke-width="2"><path d="M420 380c4-72 111-104 153-54 35 42-28 139-92 132-34-4-64-41-61-78" fill="#c5a074"/><path d="m444 356 49 57m-27-77 56 63m-27-78 47 56" stroke="#a08052" stroke-width="6" stroke-linecap="round"/></g>
  <g fill="#75a36e" stroke="#5b8656" stroke-width="2"><circle cx="503" cy="230" r="31"/><circle cx="550" cy="249" r="27"/><circle cx="522" cy="284" r="27"/><path d="m502 235 18 53m18-26-22 31" stroke-width="6" stroke-linecap="round"/><ellipse cx="316" cy="424" rx="36" ry="26" transform="rotate(-27 316 424)"/><ellipse cx="339" cy="466" rx="33" ry="23" transform="rotate(19 339 466)"/></g>
  <g fill="#d78665" stroke="#b9694f" stroke-width="2"><circle cx="381" cy="412" r="25"/><circle cx="355" cy="360" r="20"/></g>
  <path d="M738 281h80M738 451h76" stroke="#8aa192" stroke-width="4" stroke-dasharray="7 10" fill="none"/>
  <g transform="translate(825 189)"><rect x="6" y="18" width="187" height="139" rx="17" fill="#e6dac3" stroke="#a8956f" stroke-width="3"/><rect width="199" height="37" rx="10" fill="#d0ddc9" stroke="#8da589" stroke-width="3"/><g fill="#c4a45c"><circle cx="42" cy="64" r="9"/><circle cx="82" cy="64" r="9"/><circle cx="122" cy="64" r="9"/><circle cx="162" cy="64" r="9"/><circle cx="42" cy="95" r="9"/><circle cx="82" cy="95" r="9"/><circle cx="122" cy="95" r="9"/><circle cx="162" cy="95" r="9"/><circle cx="42" cy="126" r="9"/><circle cx="82" cy="126" r="9"/><circle cx="122" cy="126" r="9"/><circle cx="162" cy="126" r="9"/></g></g>
  <g transform="translate(863 370)"><rect x="19" width="65" height="31" rx="7" fill="#6f8c71"/><path d="M29 31h45v37c0 16 23 23 23 43v105c0 15-11 24-25 24H31c-14 0-25-9-25-24V111c0-20 23-27 23-43z" fill="#e1d4a1" stroke="#a8914f" stroke-width="3"/><path d="M12 149h79v62c0 10-7 17-17 17H29c-10 0-17-7-17-17z" fill="#c9b96f"/><path d="M53 84c-19 28-26 42-26 53a26 26 0 0 0 52 0c0-11-7-25-26-53" fill="#f9f2d6" stroke="#a8914f" stroke-width="2"/></g>
  <g font-family="Arial, Helvetica, sans-serif" font-size="37" font-weight="700" text-anchor="middle" fill="#315044"><circle cx="1066" cy="224" r="34" fill="#fffdf6" stroke="#a7baaa" stroke-width="3"/><text x="1066" y="237">?</text><circle cx="1038" cy="428" r="34" fill="#fffdf6" stroke="#a7baaa" stroke-width="3"/><text x="1038" y="441">?</text></g></svg>
