<svg xmlns="http://www.w3.org/2000/svg" width="1200" height="675" viewBox="0 0 1200 675" role="img" aria-labelledby="title description"><title id="title">Reverse 52-week savings contributions decrease over time</title><desc id="description">Four declining bars show deposits of 598, 429, 260 and 91 dollars in consecutive 13-week groups.</desc><rect width="1200" height="675" fill="#f2f6ef"/>
  <circle cx="1080" cy="105" r="180" fill="#dcead7"/><circle cx="65" cy="650" r="215" fill="#e2ebdc"/>
  <path d="M139 518h920" stroke="#829989" stroke-width="3"/>
  <g font-family="Arial, Helvetica, sans-serif" text-anchor="middle">
    <rect x="179" y="182" width="146" height="336" rx="14" fill="#23624c"/><text x="252" y="160" font-size="32" font-weight="700" fill="#193a2b">$598</text><text x="252" y="557" font-size="18" fill="#496553">1–13</text><rect x="395" y="277" width="146" height="241" rx="14" fill="#408564"/><text x="468" y="255" font-size="32" font-weight="700" fill="#193a2b">$429</text><text x="468" y="557" font-size="18" fill="#496553">14–26</text><rect x="611" y="372" width="146" height="146" rx="14" fill="#6da382"/><text x="684" y="350" font-size="32" font-weight="700" fill="#193a2b">$260</text><text x="684" y="557" font-size="18" fill="#496553">27–39</text><rect x="827" y="467" width="146" height="51" rx="14" fill="#a4c0a0"/><text x="900" y="445" font-size="32" font-weight="700" fill="#193a2b">$91</text><text x="900" y="557" font-size="18" fill="#496553">40–52</text>
  </g>
  <path d="M250 90C490 100 720 155 943 295" stroke="#a6bcaa" stroke-width="4" stroke-dasharray="7 11" fill="none"/><path d="m934 277 13 22-25-1" stroke="#a6bcaa" stroke-width="4" stroke-linecap="round" stroke-linejoin="round" fill="none"/>
  <g fill="#d0dec8"><circle cx="1074" cy="526" r="11"/><circle cx="1132" cy="505" r="6"/><circle cx="1100" cy="561" r="5"/></g></svg>
